HIERARCHY
ROOT Hips
{
	OFFSET 0.000000 0.000000 0.000000
	CHANNELS 6 Xposition Yposition Zposition Xrotation Yrotation Zrotation
	JOINT Spine
	{
		OFFSET 0.000000 0.053497 0.080245
		CHANNELS 3 Xrotation Yrotation Zrotation
		JOINT Spine1
		{
			OFFSET 0.000000 0.018579 0.105368
			CHANNELS 3 Xrotation Yrotation Zrotation
			JOINT Spine2
			{
				OFFSET 0.000000 0.009325 0.106586
				CHANNELS 3 Xrotation Yrotation Zrotation
				JOINT Spine3
				{
					OFFSET 0.000000 0.000000 0.106993
					CHANNELS 3 Xrotation Yrotation Zrotation
					JOINT Neck
					{
						OFFSET 0.000000 -0.040122 0.280858
						CHANNELS 3 Xrotation Yrotation Zrotation
						JOINT Head
						{
							OFFSET 0.000000 -0.025546 0.144881
							CHANNELS 3 Xrotation Yrotation Zrotation
							End Site
							{
								OFFSET 0.000000 0.000000 0.000000
							}
						}
					}
					JOINT RightShoulder
					{
						OFFSET -0.032541 -0.054234 0.175720
						CHANNELS 3 Xrotation Yrotation Zrotation
						JOINT RightArm
						{
							OFFSET -0.161619 0.000000 0.000000
							CHANNELS 3 Xrotation Yrotation Zrotation
							JOINT RightForeArm
							{
								OFFSET -0.257104 0.000000 0.000000
								CHANNELS 3 Xrotation Yrotation Zrotation
								JOINT RightHand
								{
									OFFSET -0.273485 0.000000 0.000000
									CHANNELS 3 Xrotation Yrotation Zrotation
									JOINT RightHandEnd
									{
										OFFSET -0.070844 0.000000 0.000000
										CHANNELS 3 Xrotation Yrotation Zrotation
										End Site
										{
											OFFSET 0.000000 0.000000 0.000000
										}
									}
									JOINT RightHandThumb1
									{
										OFFSET -0.028338 -0.047230 -0.018892
										CHANNELS 3 Xrotation Yrotation Zrotation
										End Site
										{
											OFFSET 0.000000 0.000000 0.000000
										}
									}
								}
							}
						}
					}
					JOINT LeftShoulder
					{
						OFFSET 0.032541 -0.054234 0.175720
						CHANNELS 3 Xrotation Yrotation Zrotation
						JOINT LeftArm
						{
							OFFSET 0.161619 0.000000 0.000000
							CHANNELS 3 Xrotation Yrotation Zrotation
							JOINT LeftForeArm
							{
								OFFSET 0.257104 0.000000 0.000000
								CHANNELS 3 Xrotation Yrotation Zrotation
								JOINT LeftHand
								{
									OFFSET 0.273485 0.000000 0.000000
									CHANNELS 3 Xrotation Yrotation Zrotation
									JOINT LeftHandEnd
									{
										OFFSET 0.070844 0.000000 0.000000
										CHANNELS 3 Xrotation Yrotation Zrotation
										End Site
										{
											OFFSET 0.000000 0.000000 0.000000
										}
									}
									JOINT LeftHandThumb1
									{
										OFFSET 0.028338 -0.047230 -0.018892
										CHANNELS 3 Xrotation Yrotation Zrotation
										End Site
										{
											OFFSET 0.000000 0.000000 0.000000
										}
									}
								}
							}
						}
					}
				}
			}
		}
	}
	JOINT RightUpLeg
	{
		OFFSET -0.096537 0.000000 -0.028202
		CHANNELS 3 Xrotation Yrotation Zrotation
		JOINT RightLeg
		{
			OFFSET 0.000000 0.000000 -0.431842
			CHANNELS 3 Xrotation Yrotation Zrotation
			JOINT RightFoot
			{
				OFFSET 0.000000 0.000000 -0.456398
				CHANNELS 3 Xrotation Yrotation Zrotation
				JOINT RightToeBase
				{
					OFFSET 0.000000 -0.128905 -0.046918
					CHANNELS 3 Xrotation Yrotation Zrotation
					End Site
					{
						OFFSET 0.000000 0.000000 0.000000
					}
				}
			}
		}
	}
	JOINT LeftUpLeg
	{
		OFFSET 0.096537 0.000000 -0.028202
		CHANNELS 3 Xrotation Yrotation Zrotation
		JOINT LeftLeg
		{
			OFFSET 0.000000 0.000000 -0.431842
			CHANNELS 3 Xrotation Yrotation Zrotation
			JOINT LeftFoot
			{
				OFFSET 0.000000 0.000000 -0.456398
				CHANNELS 3 Xrotation Yrotation Zrotation
				JOINT LeftToeBase
				{
					OFFSET 0.000000 -0.128905 -0.046918
					CHANNELS 3 Xrotation Yrotation Zrotation
					End Site
					{
						OFFSET 0.000000 0.000000 0.000000
					}
				}
			}
		}
	}
}
MOTION
Frames: 8
Frame Time: 0.033333
0.283728 0.721876 0.970026 -0.432600 0.819100 -1.961800 1.347300 0.861500 0.276400 0.529300 -0.034600 0.035000 0.218500 -1.746100 0.368200 0.096900 -0.817000 1.051100 -1.358600 -1.038300 1.103800 0.580500 0.606900 2.852800 -1.133800 4.077000 -2.489100 -24.335400 -6.297300 -19.956100 0.000000 0.000000 29.362900 5.466900 11.893700 -3.400900 0.000000 0.000000 0.000000 0.000000 0.000000 0.000000 -3.250100 -6.369600 1.093900 -21.863100 -0.197300 26.360200 0.000000 0.000000 -32.103000 -10.090600 -10.058400 5.772300 0.000000 0.000000 0.000000 0.000000 0.000000 0.000000 2.106200 3.351400 -28.942800 5.588700 0.000000 0.000000 -3.593300 -5.222900 1.726800 1.869800 0.000000 0.000000 1.680800 -3.745400 22.895400 4.289900 0.000000 0.000000 -7.883100 18.946500 4.215000 11.390500 0.000000 0.000000 
0.283624 0.721931 0.970023 -0.438200 0.824500 -1.973500 1.323000 0.857900 0.278900 0.502200 -0.045500 0.035000 0.250600 -1.725500 0.384800 0.116400 -0.812800 1.047500 -1.141400 -1.087600 1.076400 0.544700 0.551700 2.845300 -1.192200 4.147200 -2.336300 -24.180800 -6.327500 -20.052500 0.000000 0.000000 28.968200 5.482000 12.233500 -2.496300 0.000000 0.000000 0.000000 0.000000 0.000000 0.000000 -3.275700 -6.341500 1.086400 -21.692100 -0.027000 26.202700 0.000000 0.000000 -31.980100 -9.862400 -10.361600 5.590500 0.000000 0.000000 0.000000 0.000000 0.000000 0.000000 2.124000 3.335000 -28.952900 5.555400 0.000000 0.000000 -3.574700 -5.233400 1.759800 1.849900 0.000000 0.000000 1.682700 -3.753100 22.884200 4.290400 0.000000 0.000000 -7.911900 18.911700 4.263300 11.448400 0.000000 0.000000 
0.283423 0.722117 0.970029 -0.446400 0.838100 -2.009700 1.302400 0.853900 0.283400 0.473900 -0.063200 0.035200 0.283400 -1.699200 0.410800 0.142200 -0.817300 1.048000 -0.805400 -1.108800 1.046100 0.460500 0.439700 2.808800 -1.274300 4.281900 -2.025800 -24.057700 -6.301600 -20.288500 0.000000 0.000000 28.466200 4.844200 12.516500 -1.502600 0.000000 0.000000 0.000000 0.000000 0.000000 0.000000 -3.329400 -6.275200 1.087100 -21.427800 0.162900 25.969100 0.000000 0.000000 -31.764300 -9.578200 -10.635100 5.383800 0.000000 0.000000 0.000000 0.000000 0.000000 0.000000 2.134000 3.307200 -28.958300 5.520900 0.000000 0.000000 -3.541800 -5.245300 1.823000 1.840400 0.000000 0.000000 1.665600 -3.779500 22.824000 4.327900 0.000000 0.000000 -7.977100 18.852200 4.367500 11.495400 0.000000 0.000000 
0.283205 0.722437 0.970044 -0.429800 0.857400 -2.078500 1.282200 0.854200 0.288600 0.452500 -0.082200 0.035500 0.302800 -1.687500 0.439800 0.162700 -0.830300 1.055400 -0.502200 -1.081900 1.030800 0.364200 0.366400 2.740000 -1.325700 4.426800 -1.715700 -24.023300 -6.198200 -20.469200 0.000000 0.000000 28.011300 3.875500 12.551100 -1.041500 0.000000 0.000000 0.000000 0.000000 0.000000 0.000000 -3.375200 -6.211600 1.097800 -21.195100 0.255200 25.795100 0.000000 0.000000 -31.482700 -9.576600 -10.641400 5.237700 0.000000 0.000000 0.000000 0.000000 0.000000 0.000000 2.099400 3.276300 -28.964500 5.498400 0.000000 0.000000 -3.501700 -5.247300 1.918900 1.848600 0.000000 0.000000 1.610700 -3.818100 22.755900 4.390600 0.000000 0.000000 -8.048600 18.776500 4.490700 11.531400 0.000000 0.000000 
0.283060 0.722851 0.970067 -0.378700 0.872200 -2.170100 1.257500 0.851000 0.295100 0.434300 -0.100300 0.035800 0.312800 -1.683300 0.480700 0.172700 -0.839600 1.062300 -0.328300 -1.032200 1.029200 0.308100 0.382600 2.655700 -1.309400 4.551700 -1.543500 -24.092100 -6.058900 -20.483700 0.000000 0.000000 27.619900 3.323300 12.602200 -1.118300 0.000000 0.000000 0.000000 0.000000 0.000000 0.000000 -3.395400 -6.201900 1.104600 -21.039000 0.235200 25.727400 0.000000 0.000000 -31.132400 -9.898400 -10.364300 5.238500 0.000000 0.000000 0.000000 0.000000 0.000000 0.000000 2.016100 3.255700 -29.003100 5.484700 0.000000 0.000000 -3.461300 -5.233300 2.061300 1.860300 0.000000 0.000000 1.518500 -3.850800 22.756500 4.456400 0.000000 0.000000 -8.100600 18.690500 4.579300 11.584200 0.000000 0.000000 
0.282976 0.723384 0.970092 -0.303500 0.883600 -2.257500 1.237700 0.832800 0.299700 0.422800 -0.123700 0.036600 0.312400 -1.667600 0.538100 0.171100 -0.838900 1.065100 -0.267100 -0.965200 1.037000 0.304300 0.410300 2.579900 -1.266800 4.660400 -1.488700 -24.319700 -5.885600 -20.471600 0.000000 0.000000 27.315200 3.273800 12.922700 -1.284400 0.000000 0.000000 0.000000 0.000000 0.000000 0.000000 -3.416800 -6.242400 1.103000 -20.911500 0.146200 25.712900 0.000000 0.000000 -30.754400 -10.247200 -9.874900 5.523200 0.000000 0.000000 0.000000 0.000000 0.000000 0.000000 1.896100 3.242500 -29.061900 5.481800 0.000000 0.000000 -3.419800 -5.210600 2.213000 1.859700 0.000000 0.000000 1.382700 -3.883600 22.796900 4.540800 0.000000 0.000000 -8.144100 18.627800 4.637100 11.624100 0.000000 0.000000 
0.282910 0.724022 0.970123 -0.220300 0.892600 -2.318300 1.240300 0.800900 0.300700 0.426600 -0.143600 0.038200 0.288000 -1.650600 0.594800 0.158400 -0.836400 1.070400 -0.257500 -0.843800 1.065800 0.314200 0.365900 2.530400 -1.271600 4.750500 -1.466400 -24.705200 -5.633200 -20.606800 0.000000 0.000000 27.232800 3.125400 13.321100 -1.351100 0.000000 0.000000 0.000000 0.000000 0.000000 0.000000 -3.457500 -6.295900 1.105600 -20.850500 0.023700 25.742500 0.000000 0.000000 -30.480500 -10.447700 -9.204700 6.097000 0.000000 0.000000 0.000000 0.000000 0.000000 0.000000 1.755800 3.235200 -29.096400 5.498200 0.000000 0.000000 -3.379000 -5.197500 2.312600 1.850300 0.000000 0.000000 1.218600 -3.917600 22.780400 4.636500 0.000000 0.000000 -8.180300 18.614600 4.707200 11.600700 0.000000 0.000000 
0.282859 0.724675 0.970156 -0.115000 0.898000 -2.336800 1.240300 0.765700 0.297500 0.435800 -0.152800 0.038700 0.248500 -1.654600 0.628900 0.140500 -0.842000 1.080400 -0.268500 -0.660300 1.136200 0.307500 0.294100 2.515500 -1.330400 4.806600 -1.451300 -25.073600 -5.322500 -20.870800 0.000000 0.000000 27.462600 2.566100 13.445400 -1.538600 0.000000 0.000000 0.000000 0.000000 0.000000 0.000000 -3.499300 -6.326100 1.124800 -20.965300 -0.101600 25.843900 0.000000 0.000000 -30.390800 -10.623500 -8.517100 6.694200 0.000000 0.000000 0.000000 0.000000 0.000000 0.000000 1.599300 3.227600 -29.109200 5.510700 0.000000 0.000000 -3.341600 -5.194700 2.349900 1.850900 0.000000 0.000000 1.031700 -3.946600 22.717600 4.715600 0.000000 0.000000 -8.191900 18.622100 4.768600 11.556900 0.000000 0.000000 
